# xmcd
#
# Track frame offsets:
# 150
# 19417
# 35225
# 48990
# 62307
# 76647
# 87610
# 100497
# 112950
# 124345
# 136870
# 149702
# 165232
# 177907
# 189562
# 203737
# 222042
# 234065
# 249072
# 260980
#
# Disc length: 3625 seconds
#
#
# Revision: 1
# Processed by: cddbd v1.5.2PL0 Copyright (c) Steve Scherf et al.
# Submitted via: FreeRIP 2.96 
#
DISCID=140e2714
DTITLE=BANDA ZETA - 20 Exitos
DYEAR=1998
DGENRE=Ambient
TTITLE0=HOTEL CALIFORNIA
TTITLE1=ROCK NATIVO
TTITLE2=LA CALENTURA
TTITLE3=PRESUMIDAS S.A.
TTITLE4=JACARADOSA
TTITLE5=NIÑITA PROBLEMA
TTITLE6=EL SR. DE LAS CANAS
TTITLE7=AEROBICS DE SEÑORITAS
TTITLE8=EL GATO DEL VECINDARIO
TTITLE9=EL CARIÑO QUE PERDI
TTITLE10=ZAPATOS VIEJOS
TTITLE11=PORQUE ME QUITE DEL VICIO
TTITLE12=ZAPATOS DE BAILADOR
TTITLE13=LA PALIDA LUZ
TTITLE14=LA MATRACA
TTITLE15=REVENTON UNISEX
TTITLE16=LA NIÑA FRESA
TTITLE17=CANCION DE UNA TRISTE PROMESA
TTITLE18=DE CHIVITO LOS TAMALES
TTITLE19=JUAREZ
EXTD=
EXTT0=
EXTT1=
EXTT2=
EXTT3=
EXTT4=
EXTT5=
EXTT6=
EXTT7=
EXTT8=
EXTT9=
EXTT10=
EXTT11=
EXTT12=
EXTT13=
EXTT14=
EXTT15=
EXTT16=
EXTT17=
EXTT18=
EXTT19=
PLAYORDER=
